<svg id="Calque_1" data-name="Calque 1" xmlns="http://www.w3.org/2000/svg" viewBox="0 0 805.02368 409.5">
  <path d="M828.97738,489.23067C828.97738,673,839.32775,547.95389,417.20088,549,13.68055,550,24.00076,694,24.00076,489.23067,24.00076,395.21487,204.20091,319,426.48907,319S828.97738,395.21487,828.97738,489.23067Z" transform="translate(-23.97632 -319)" style="fill: #cfc"/>
  <ellipse cx="406.52368" cy="326.5" rx="374" ry="83" style="fill: #d3ebcc"/>
  <g id="Marteau">
    <path d="M369.69962,663.55041,267.88855,640.88715A1.80116,1.80116,0,0,1,266.5,638.75473v-.04959l3.71935-15.07578a1.83316,1.83316,0,0,1,2.13243-1.339L373.8157,645.00325a9.474,9.474,0,0,1,7.19074,11.30682c-.04957.14877-.09918.34715-.14876.49591h0A9.35875,9.35875,0,0,1,369.69962,663.55041Z" transform="translate(-23.97632 -319)" style="stroke: #fff;stroke-miterlimit: 10"/>
    <path d="M256.63131,642.9204l5.90137,1.43815a.24083.24083,0,0,0,.29755-.14877h0l5.35586-27.07689c.04959-.14877-.0496-.248-.19836-.29755h0l-5.455-.69428c-.09919,0-.248.0496-.248.19837l-5.8022,26.38261c-.04958.04959,0,.19836.14879.19836Z" transform="translate(-23.97632 -319)" style="stroke: #fff;stroke-miterlimit: 10"/>
    <polyline points="230.275 321.937 218.869 340.087 197.693 335.128 194.37 301.902 212.124 273.684 233.3 278.643 235.234 297.835" style="stroke: #fff;stroke-miterlimit: 10"/>
    <line x1="262.40981" y1="290.94214" x2="297.5701" y2="280.47837" style="fill: none"/>
    <path d="M285.34472,606.37157l35.557-9.12481a2.38573,2.38573,0,0,1,1.38859,4.5624l-34.81318,11.70357a3.73289,3.73289,0,0,1-2.47957-7.042.91947.91947,0,0,1,.34715-.09918Z" transform="translate(-23.97632 -319)"/>
    <line x1="251.05339" y1="268.32849" x2="305.35595" y2="212.88534" style="fill: none"/>
    <path d="M272.35178,584.74974l55.49275-54.30255a2.06921,2.06921,0,1,1,2.97548,2.8763h0l-53.162,56.63334a3.71764,3.71764,0,1,1-5.30628-5.20709Z" transform="translate(-23.97632 -319)"/>
    <line x1="228.53891" y1="256.82329" x2="238.30841" y2="222.50606" style="fill: none"/>
    <path d="M248.94464,574.78187,260.30106,540.911a2.14331,2.14331,0,0,1,2.67793-1.28937,2.07222,2.07222,0,0,1,1.339,2.43l-8.23217,34.76355a3.73569,3.73569,0,0,1-7.28994-1.63652,3.40953,3.40953,0,0,0,.14878-.39673Z" transform="translate(-23.97632 -319)"/>
    <line x1="203.84241" y1="255.038" x2="183.41077" y2="182.03951" style="fill: none"/>
    <path d="M224.24815,575.07942,205.30424,501.6346a2.12288,2.12288,0,0,1,1.58693-2.57875,2.18448,2.18448,0,0,1,2.57876,1.43815l21.969,72.55217a3.73647,3.73647,0,1,1-7.19075,2.03325Z" transform="translate(-23.97632 -319)"/>
    <line x1="184.89851" y1="271.7007" x2="158.16876" y2="245.16932" style="fill: none"/>
    <path d="M206.24649,593.329l-25.39078-27.87035a1.87286,1.87286,0,0,1,.14876-2.62834,1.831,1.831,0,0,1,2.47957,0l28.01912,25.242a3.723,3.723,0,0,1-4.95913,5.55424Z" transform="translate(-23.97632 -319)"/>
    <line x1="171.55843" y1="292.9258" x2="95.48527" y2="272.09742" style="fill: none"/>
    <path d="M194.54293,615.546l-75.47806-22.9608a1.49187,1.49187,0,0,1,.79346-2.8763l76.66825,18.69594a3.70669,3.70669,0,1,1-1.98365,7.14116Z" transform="translate(-23.97632 -319)"/>
    <line x1="171.55843" y1="316.08497" x2="139.12568" y2="325.16019" style="fill: none"/>
    <path d="M196.52658,638.65554l-13.04252,2.77712-19.93574,4.21527a1.57691,1.57691,0,0,1-1.88446-1.23979,1.64456,1.64456,0,0,1,1.04142-1.83488l31.83766-11.15806a3.71671,3.71671,0,1,1,2.38038,7.042.75184.75184,0,0,1-.39674.19836Z" transform="translate(-23.97632 -319)"/>
  </g>
  <g id="AlgoForge">
    <path d="M263.00524,445.43989c-.59509-2.97548-.99182-4.95914-1.23978-6.00056-.09918-.54551-.19837-1.1406-.34714-1.78529s-.29755-1.38855-.49591-2.182H247.7807l-2.182,9.96787H229.23353L232.457,430.9592q6.39729-28.04392,8.18258-37.14393h27.47362q2.97548,14.3567,11.55478,51.62462Zm-3.81853-18.3984q-3.71936-18.07605-4.46322-27.72157h-.84306c-.74387,7.28993-2.182,16.51392-4.41363,27.72157Z" transform="translate(-23.97632 -319)"/>
    <path d="M282.7922,419.65238c0-7.58748-.09918-16.21638-.29755-25.83711h16.31556c-.14877,7.63707-.248,15.57169-.248,23.80386,0,5.00873.04959,9.96787.14877,14.927,5.25669,0,11.5052-.04959,18.69594-.14877l-1.1406,12.993H282.49465Q282.7922,431.03357,282.7922,419.65238Z" transform="translate(-23.97632 -319)"/>
    <path d="M321.2751,439.5385q-4.90955-6.84361-4.90954-19.93573c0-9.224,1.83488-15.96843,5.455-20.28287q5.43026-6.39729,17.70412-6.39728c5.80218,0,10.315.74387,13.588,2.28121a13.93976,13.93976,0,0,1,7.09156,7.19074c1.43815,3.273,2.28121,7.68667,2.57876,13.29048l-15.96842,1.68611c-.19836-3.91772-.84305-6.99239-2.03325-9.17441a5.94142,5.94142,0,0,0-5.55423-3.273,16.80527,16.80527,0,0,0-5.40545.79347,53.192,53.192,0,0,0-1.23979,6.09973,57.449,57.449,0,0,0-.39673,7.14115,25.58949,25.58949,0,0,0,2.13243,11.15806q2.15723,4.46322,6.24852,4.46322a19.0712,19.0712,0,0,0,5.00873-.69427,12.10718,12.10718,0,0,0,2.72752-1.7357,6.1426,6.1426,0,0,1,1.091-.89264,5.93079,5.93079,0,0,0-1.091-3.81854,4.04079,4.04079,0,0,0-3.37221-1.38855h-3.96731v-3.37221h23.60548v6.14933c0,6.2981,0,11.85233.0496,16.56351H349.04628l.29755-11.5052H348.352c-.49592,4.21526-1.7853,7.33951-3.91772,9.37276a11.95716,11.95716,0,0,1-8.57931,3.07467C329.35849,446.38212,324.49854,444.10091,321.2751,439.5385Z" transform="translate(-23.97632 -319)"/>
    <path d="M377.01579,443.605a16.9708,16.9708,0,0,1-7.63706-8.67849c-1.63651-3.91771-2.43-9.02563-2.43-15.27413,0-9.27359,1.83489-16.0676,5.55424-20.28287,3.66976-4.21526,9.57113-6.34769,17.65453-6.34769,5.55424,0,10.11664.94224,13.588,2.82672a17.17616,17.17616,0,0,1,7.73626,8.77768c1.63651,3.9673,2.47957,9.02563,2.47957,15.32372,0,9.17441-1.88447,15.86924-5.703,20.1341s-9.67032,6.39728-17.60493,6.39728C385.0496,446.38212,380.48719,445.43989,377.01579,443.605Zm19.19187-9.67032a55.22712,55.22712,0,0,0,1.6861-13.63762,26.18349,26.18349,0,0,0-1.98365-11.00929c-1.339-2.87629-3.37221-4.31445-6.14933-4.31445a18.71162,18.71162,0,0,0-5.50464.79346c-.44632,1.98365-.84306,4.0169-1.091,6.05015a59.79435,59.79435,0,0,0-.34714,7.28994,25.9691,25.9691,0,0,0,2.08284,11.10846c1.38857,2.92589,3.47139,4.41363,6.19892,4.41363A15.904,15.904,0,0,0,396.20766,433.93468Z" transform="translate(-23.97632 -319)"/>
    <path d="M615.20312,434.82732H621.65V421.38808c0-.59511-1.68611-.29756-2.28119-.0496a3.50193,3.50193,0,0,1-1.091,2.97548c-.64468.84306-1.38856.59511-2.43.59511h-13.836v-7.58749l18.05126.44632v-3.521H589.118c0,3.57058-.04958,7.19074-.09919,10.66214-.04958,3.81854-.14877,7.14115-.248,9.96787h24.05182c.74387,0,2.38038.34714,2.87629-.29755a9.12585,9.12585,0,0,0,1.98365-3.4218,9.75687,9.75687,0,0,1,.29754,1.73569,13.91568,13.91568,0,0,1,0,2.03325" transform="translate(-23.97632 -319)"/>
    <path d="M619.31919,407.10575a3.50193,3.50193,0,0,0-1.091-2.97548c-.64468-.84306-1.38855-.5951-2.43-.5951h-13.836v7.58747l18.05126-.44632v3.521h-30.945c0-3.57058-.04958-7.14115-.09919-10.61255-.04958-3.81854-.14877-7.14115-.248-9.96786h32.87907v13.43926C621.60041,407.65126,619.9143,407.4033,619.31919,407.10575Z" transform="translate(-23.97632 -319)"/>
    <g style="isolation: isolate">
      <path d="M429.63224,414.64365c0-2.72753-.0496-7.14116-.19837-13.29048-.04959-3.71936-.09919-6.05016-.09919-7.09156h31.34175v9.52155H442.12927l.04959,8.72808,17.05943-.44632v8.33134l-17.05943-.44632c0,4.21527.0496,9.17441.09919,14.927H429.3347C429.53305,426.34721,429.63224,419.55319,429.63224,414.64365Z" transform="translate(-23.97632 -319)"/>
    </g>
    <g style="isolation: isolate">
      <path d="M471.289,433.48837a13.64014,13.64014,0,0,1-6.14932-6.84361,31.47879,31.47879,0,0,1-1.98366-12.05069c0-7.33952,1.48774-12.6458,4.46323-15.96843s7.73625-5.00873,14.23272-5.00873a23.38987,23.38987,0,0,1,10.95968,2.23161,13.42724,13.42724,0,0,1,6.19892,6.8932,30.81617,30.81617,0,0,1,2.03324,12.05069c0,7.19075-1.53732,12.497-4.612,15.86924S488.646,435.72,482.19907,435.72C477.73586,435.72,474.0661,434.97611,471.289,433.48837Zm15.4725-7.58749a42.37363,42.37363,0,0,0,1.339-10.76133,20.87545,20.87545,0,0,0-1.58693-8.67849,5.2115,5.2115,0,0,0-4.95913-3.4218,14.72464,14.72464,0,0,0-4.46323.64468,31.96111,31.96111,0,0,0-.84306,4.76077,46.9454,46.9454,0,0,0-.29755,5.7526,19.93321,19.93321,0,0,0,1.68611,8.77768,5.29739,5.29739,0,0,0,5.00873,3.4714A13.10591,13.10591,0,0,0,486.76148,425.90088Z" transform="translate(-23.97632 -319)"/>
      <path d="M505.45743,414.64365c0-6.44688-.09919-13.2409-.248-20.38206h19.787a38.83136,38.83136,0,0,1,9.57113.94224,10.20935,10.20935,0,0,1,5.60382,3.32262,10.35229,10.35229,0,0,1,1.93407,6.69484q0,6.09975-3.12425,8.62889c-2.08284,1.68611-5.45505,2.52916-10.067,2.52916v.84306c4.5128.0496,7.73624.74387,9.67032,2.03325a7.78417,7.78417,0,0,1,3.273,6.14933,35.82339,35.82339,0,0,0,.74387,4.76077,40.39632,40.39632,0,0,0,1.1902,4.76078H529.906a88.06566,88.06566,0,0,1-1.1406-9.27359,12.83219,12.83219,0,0,0-.69429-2.8763,2.62842,2.62842,0,0,0-1.43816-1.38855,7.26181,7.26181,0,0,0-2.87629-.44632h-5.65343V434.877H505.20947C505.35824,427.78536,505.45743,421.04093,505.45743,414.64365Zm21.86978-2.47957a4.66028,4.66028,0,0,0,1.53732-3.91772c0-1.93406-.49591-3.273-1.53732-4.0169a7.86124,7.86124,0,0,0-4.6616-1.1406h-4.76076v10.16623h4.86A6.99429,6.99429,0,0,0,527.32721,412.16408Z" transform="translate(-23.97632 -319)"/>
      <path d="M549.74251,430.31452c-2.62833-3.62016-3.96731-8.82726-3.96731-15.72047,0-7.28993,1.48775-12.5962,4.41365-15.96842s7.68666-5.05833,14.23273-5.05833c4.6616,0,8.33134.5951,10.95968,1.78529a11.12966,11.12966,0,0,1,5.703,5.65342c1.19021,2.57875,1.83489,6.05015,2.08285,10.46378l-12.84418,1.339a17.16073,17.16073,0,0,0-1.63651-7.24034,4.70685,4.70685,0,0,0-4.46322-2.57876,13.13983,13.13983,0,0,0-4.31446.64468,37.79207,37.79207,0,0,0-.99182,4.81037,44.91158,44.91158,0,0,0-.29754,5.60382,19.90259,19.90259,0,0,0,1.7357,8.77768c1.14059,2.3308,2.82671,3.521,5.00871,3.521a15.98732,15.98732,0,0,0,4.01689-.54551,9.40424,9.40424,0,0,0,2.182-1.38855,4.27546,4.27546,0,0,1,.89264-.69428,4.678,4.678,0,0,0-.89264-3.02508,3.24846,3.24846,0,0,0-2.72752-1.091h-3.17386v-2.67793h18.99349v4.85995c0,4.95913,0,9.32317.04958,13.04252H572.15779l.248-9.07522h-.79345c-.39672,3.32263-1.43816,5.75261-3.17386,7.38911a9.64016,9.64016,0,0,1-6.94279,2.43C556.28858,435.72,552.37085,433.88509,549.74251,430.31452Z" transform="translate(-23.97632 -319)"/>
    </g>
  </g>
  <g id="Anvil">
    <path d="M483.68681,491.80781h52.71561c18.99349-12.39784,46.46712-25.1924,85.14839-37.78862V437.45567H413.515V447.6219l-184.28151-1.43814s3.62017,69.32872,152.791,72.60174c0,0,53.01316,33.02784-41.01206,80.586L340.66533,626.25h48.25239s50.08728-33.375,103.10046,0h48.2524V598.67721s-73.24646-40.21859-25.19241-89.66119H500.20076c-3.17386,0-3.17386-4.95913,0-4.95913h20.0845c2.72753-2.38038,5.703-4.81037,9.02564-7.24033H483.73642C480.513,496.767,480.513,491.80781,483.68681,491.80781Z" transform="translate(-23.97632 -319)"/>
  </g>
  <circle cx="718.52368" cy="89.5" r="62.5" style="fill: #92ffcc"/>
</svg>
