<svg id="Calque_1" data-name="Calque 1" xmlns="http://www.w3.org/2000/svg" viewBox="0 0 739 689.15921">
  <g id="_15._Rocket" data-name="15. Rocket">
    <g>
      <circle cx="139" cy="139" r="139" style="fill: #bfffef"/>
      <circle cx="565" cy="267" r="174" style="fill: #aaffd2"/>
      <g>
        <path d="M608.29408,156.75382a281.64462,281.64462,0,0,1,24.58948,163.89456l-.01413.00266L446.715,193.61077l-.00266-.01412A281.64461,281.64461,0,0,1,608.29408,156.75382Z" transform="translate(-103 -136)" style="fill: #ff7124"/>
        <path d="M222.26224,509.188l95.99039-166.39062.01411-.00266,37.13222-64.3762a279.51463,279.51463,0,0,1,91.31334-84.82182l.00266.01412L632.86943,320.651l.01413-.00266a279.51468,279.51468,0,0,1-45.70189,115.94914l-46.41223,58.04306L420.80132,644.68l-49.62219-33.86444-49.639-33.87585-49.639-33.87588ZM509.0551,433.81458A74.21665,74.21665,0,1,0,405.918,453.28129,74.20356,74.20356,0,0,0,509.0551,433.81458Z" transform="translate(-103 -136)" style="fill: #f2d59f"/>
        <path d="M540.76944,494.64058a244.30467,244.30467,0,0,1-78.4487,239.18975L420.80133,644.68Z" transform="translate(-103 -136)" style="fill: #f2d59f"/>
        <path d="M489.58839,330.67743a74.21665,74.21665,0,1,1-103.13715,19.4667A74.20354,74.20354,0,0,1,489.58839,330.67743Z" transform="translate(-103 -136)" style="fill: #8ecac1"/>
        <path d="M420.8013,644.68l-52.463,31.40771a43.05715,43.05715,0,0,1-46.42992-1.38261l-11.49518-7.84482,60.76586-56.04471Z" transform="translate(-103 -136)" style="fill: #e6b263"/>
        <polygon points="268.179 474.816 207.413 530.86 207.399 530.863 173.132 507.477 218.54 440.94 268.179 474.816" style="fill: #e6b263"/>
        <path d="M318.25263,342.79733,222.26225,509.188,124.128,503.03234a244.3034,244.3034,0,0,1,194.12459-160.235Z" transform="translate(-103 -136)" style="fill: #f2d59f"/>
        <polygon points="218.54 440.94 173.132 507.477 138.862 484.078 168.901 407.064 218.54 440.94" style="fill: #e6b263"/>
        <path d="M271.9012,543.06383l-30.03937,77.01385-11.50928-7.84217a43.11953,43.11953,0,0,1-18.21148-42.73162l10.12117-60.316Z" transform="translate(-103 -136)" style="fill: #e6b263"/>
      </g>
    </g>
  </g>
  <g>
    <g id="Marteau">
      <path d="M493.91385,382.43074l-32.937-7.3318a.58271.58271,0,0,1-.44921-.68986V374.393l1.20325-4.87717a.59305.59305,0,0,1,.68986-.43317l32.82466,7.34785a3.06494,3.06494,0,0,1,2.32629,3.65788c-.016.04812-.03209.1123-.04813.16043h0A3.02765,3.02765,0,0,1,493.91385,382.43074Z" transform="translate(-103 -136)"/>
      <path d="M457.33505,375.75672l1.90915.46525a.07789.07789,0,0,0,.09626-.04813h0l1.73268-8.75966c.016-.04813-.016-.08021-.06417-.09626h0l-1.76477-.2246c-.03209,0-.08022.016-.08022.06417l-1.87707,8.53505c-.016.01605,0,.06418.04814.06418Z" transform="translate(-103 -136)"/>
      <polyline points="353.565 239.115 349.875 244.987 343.024 243.383 341.95 232.633 347.693 223.505 354.544 225.109 355.169 231.318"/>
      <line x1="363.96105" y1="229.0879" x2="375.33577" y2="225.70276" style="fill: none"/>
      <path d="M466.62414,363.93278l11.50307-2.952a.77181.77181,0,0,1,.44922,1.476L467.314,366.243a1.20763,1.20763,0,0,1-.80217-2.27815.29735.29735,0,0,1,.11231-.03209Z" transform="translate(-103 -136)"/>
      <line x1="360.28712" y1="221.77214" x2="377.85458" y2="203.83569" style="fill: none"/>
      <path d="M462.42078,356.93789l17.9525-17.56746a.66942.66942,0,1,1,.9626.93052h0l-17.19846,18.32149a1.2027,1.2027,0,1,1-1.71664-1.68455Z" transform="translate(-103 -136)"/>
      <line x1="353.00345" y1="218.05009" x2="356.16399" y2="206.9481" style="fill: none"/>
      <path d="M454.84833,353.71318l3.67392-10.9576a.69338.69338,0,0,1,.86634-.41713.67037.67037,0,0,1,.43317.78612L457.15857,354.371a1.20853,1.20853,0,1,1-2.35837-.52943,1.10477,1.10477,0,0,0,.04813-.12834Z" transform="translate(-103 -136)"/>
      <line x1="345.01387" y1="217.47253" x2="338.40402" y2="193.85674" style="fill: none"/>
      <path d="M446.85875,353.80944l-6.12856-23.76018a.68678.68678,0,0,1,.51339-.83426.70671.70671,0,0,1,.83426.46526l7.10719,23.4714a1.20879,1.20879,0,1,1-2.32628.65778Z" transform="translate(-103 -136)"/>
      <line x1="338.88532" y1="222.86309" x2="330.23796" y2="214.2799" style="fill: none"/>
      <path d="M441.035,359.71338l-8.21419-9.01635a.6059.6059,0,0,1,.04813-.8503.59235.59235,0,0,1,.80217,0l9.06448,8.16606a1.20442,1.20442,0,1,1-1.60433,1.79685Z" transform="translate(-103 -136)"/>
      <line x1="334.56966" y1="229.72963" x2="309.95918" y2="222.99143" style="fill: none"/>
      <path d="M437.24879,366.9008l-24.41795-7.42807a.48263.48263,0,1,1,.25669-.93051l24.803,6.04833a1.19916,1.19916,0,1,1-.64174,2.31025Z" transform="translate(-103 -136)"/>
      <line x1="334.56966" y1="237.22187" x2="324.07732" y2="240.1578" style="fill: none"/>
      <path d="M437.89053,374.377l-4.2194.89843-6.44942,1.36368a.51016.51016,0,0,1-.60965-.40108.53205.53205,0,0,1,.33692-.59361l10.29982-3.60975a1.2024,1.2024,0,0,1,.77008,2.27816.2433.2433,0,0,1-.12835.06417Z" transform="translate(-103 -136)"/>
    </g>
    <g id="AlgoForge">
      <path d="M394.97461,400.51158c-.19252-.9626-.32087-1.60433-.40109-1.94124-.03208-.17648-.06417-.369-.1123-.57756s-.09626-.44921-.16043-.70591H390.0493l-.70591,3.22471h-5.2943l1.04282-4.68465q2.06959-9.07251,2.64715-12.01646h8.888q.96259,4.64454,3.7381,16.70111Zm-1.23534-5.95207a77.7534,77.7534,0,0,1-1.4439-8.96823h-.27274c-.24065,2.35838-.7059,5.34243-1.42785,8.96823Z" transform="translate(-103 -136)"/>
      <path d="M401.3759,392.16905c0-2.45463-.03209-5.24617-.09626-8.35858h5.27825c-.04813,2.47068-.08021,5.03761-.08021,7.7008,0,1.62038.016,3.22471.04813,4.829,1.70059,0,3.72205-.01605,6.04833-.04813l-.369,4.20336H401.27964Q401.3759,395.851,401.3759,392.16905Z" transform="translate(-103 -136)"/>
      <path d="M413.82552,398.60242q-1.58829-2.214-1.58828-6.44942c0-2.98406.5936-5.166,1.76476-6.56172q1.75676-2.06959,5.72747-2.06959a10.54411,10.54411,0,0,1,4.39588.738,4.50968,4.50968,0,0,1,2.29419,2.32629,12.571,12.571,0,0,1,.83426,4.29961l-5.166.54547a7.07065,7.07065,0,0,0-.65777-2.968,1.92213,1.92213,0,0,0-1.79686-1.05886,5.43674,5.43674,0,0,0-1.74872.2567,17.2077,17.2077,0,0,0-.40108,1.97333,18.58541,18.58541,0,0,0-.12835,2.31024,8.27857,8.27857,0,0,0,.68986,3.60975,2.19045,2.19045,0,0,0,2.02147,1.4439,6.16952,6.16952,0,0,0,1.62037-.22461,3.91664,3.91664,0,0,0,.88239-.56152,1.98683,1.98683,0,0,1,.353-.28877,1.91866,1.91866,0,0,0-.353-1.23534,1.30723,1.30723,0,0,0-1.09095-.44921h-1.28347v-1.09095h7.63663v1.98937c0,2.03751,0,3.83436.016,5.35848h-5.0376l.09626-3.72206h-.32087a4.82893,4.82893,0,0,1-1.26742,3.03219,3.86828,3.86828,0,0,1-2.7755.99469A5.34308,5.34308,0,0,1,413.82552,398.60242Z" transform="translate(-103 -136)"/>
      <path d="M431.85823,399.918a5.49031,5.49031,0,0,1-2.47067-2.80758,13.0068,13.0068,0,0,1-.78612-4.94135c0-3.0001.5936-5.198,1.79685-6.56172,1.18721-1.36369,3.09636-2.05355,5.71143-2.05355a9.22048,9.22048,0,0,1,4.39587.91448,5.5566,5.5566,0,0,1,2.50276,2.83967,13.0681,13.0681,0,0,1,.80217,4.95739c0,2.968-.60964,5.13386-1.845,6.51359s-3.12845,2.06959-5.69539,2.06959A9.8435,9.8435,0,0,1,431.85823,399.918Zm6.20877-3.12845a17.86627,17.86627,0,0,0,.54548-4.41192,8.47048,8.47048,0,0,0-.64174-3.56162,2.10263,2.10263,0,0,0-1.98937-1.39577,6.05336,6.05336,0,0,0-1.78081.25669c-.14439.64174-.27274,1.29951-.353,1.95729a19.34556,19.34556,0,0,0-.1123,2.35837,8.40127,8.40127,0,0,0,.67382,3.59371,2.16194,2.16194,0,0,0,2.00542,1.42785A5.14509,5.14509,0,0,0,438.067,396.78953Z" transform="translate(-103 -136)"/>
      <path d="M508.91437,397.07831H511v-4.34774c0-.19252-.54548-.09626-.738-.01605a1.1329,1.1329,0,0,1-.35295.9626c-.20857.27274-.44922.19253-.78613.19253h-4.4761V391.415l5.83978.14439v-1.13908h-10.011c0,1.15513-.016,2.32629-.03209,3.44932-.016,1.23534-.04813,2.31024-.08022,3.22471h7.781c.24065,0,.77008.11231.93051-.09626a2.95225,2.95225,0,0,0,.64173-1.107,3.15652,3.15652,0,0,1,.09626.56152,4.5018,4.5018,0,0,1,0,.65778" transform="translate(-103 -136)"/>
      <path d="M510.246,388.11008a1.13292,1.13292,0,0,0-.353-.9626c-.20857-.27273-.44922-.19252-.78613-.19252h-4.4761v2.45463l5.83978-.14439v1.13908h-10.011c0-1.15512-.016-2.31024-.03209-3.43327-.016-1.23534-.04813-2.31024-.08022-3.22471h10.63673V388.094C510.984,388.28656,510.43848,388.20635,510.246,388.11008Z" transform="translate(-103 -136)"/>
      <g style="isolation: isolate">
        <path d="M448.88021,390.54867c0-.88238-.016-2.31024-.06417-4.29961-.01605-1.20325-.03209-1.95729-.03209-2.29419h10.13939v3.08032h-6.00021l.01605,2.82363,5.5189-.14439v2.69528l-5.5189-.14439c0,1.36368.016,2.968.03209,4.829H448.784C448.84812,394.3349,448.88021,392.137,448.88021,390.54867Z" transform="translate(-103 -136)"/>
      </g>
      <g style="isolation: isolate">
        <path d="M462.35661,396.64514a4.41271,4.41271,0,0,1-1.98937-2.214,10.18369,10.18369,0,0,1-.64173-3.89853c0-2.37441.4813-4.091,1.4439-5.166a5.903,5.903,0,0,1,4.60444-1.62038,7.56688,7.56688,0,0,1,3.54557.72195,4.3439,4.3439,0,0,1,2.00542,2.23,9.96946,9.96946,0,0,1,.65777,3.89853c0,2.32628-.49734,4.04292-1.492,5.13387a5.92019,5.92019,0,0,1-4.60444,1.63642A7.497,7.497,0,0,1,462.35661,396.64514Zm5.00552-2.45463a13.70826,13.70826,0,0,0,.43317-3.48141,6.75335,6.75335,0,0,0-.51339-2.80758,1.686,1.686,0,0,0-1.60433-1.107,4.76355,4.76355,0,0,0-1.4439.20856,10.33822,10.33822,0,0,0-.27274,1.54016,15.18764,15.18764,0,0,0-.09626,1.861,6.44868,6.44868,0,0,0,.54547,2.83967,1.71376,1.71376,0,0,0,1.62038,1.123A4.24006,4.24006,0,0,0,467.36213,394.19051Z" transform="translate(-103 -136)"/>
        <path d="M473.41047,390.54867c0-2.08563-.03209-4.28357-.08022-6.59381h6.4013a12.56262,12.56262,0,0,1,3.09636.30482,3.30288,3.30288,0,0,1,1.81289,1.07491,3.349,3.349,0,0,1,.6257,2.16585,3.40187,3.40187,0,0,1-1.01073,2.79154,5.19045,5.19045,0,0,1-3.2568.81821v.27274a5.97151,5.97151,0,0,1,3.12845.65778,2.51822,2.51822,0,0,1,1.05886,1.98937,11.59094,11.59094,0,0,0,.24065,1.54016,13.06947,13.06947,0,0,0,.385,1.54016h-4.49213a28.48765,28.48765,0,0,1-.369-3.0001,4.15207,4.15207,0,0,0-.22461-.93052.85034.85034,0,0,0-.46527-.44921,2.34925,2.34925,0,0,0-.93051-.14439h-1.82894v4.50818h-4.17127C473.37838,394.80016,473.41047,392.61826,473.41047,390.54867Zm7.07511-.80216a1.50769,1.50769,0,0,0,.49733-1.26743,1.49071,1.49071,0,0,0-.49733-1.29951,2.54321,2.54321,0,0,0-1.50808-.369h-1.54016v3.28888h1.57225A2.26275,2.26275,0,0,0,480.48558,389.74651Z" transform="translate(-103 -136)"/>
        <path d="M487.73716,395.61837a8.55633,8.55633,0,0,1-1.28346-5.08574c0-2.35837.4813-4.075,1.42786-5.166s2.48672-1.63642,4.60444-1.63642a8.81547,8.81547,0,0,1,3.54557.57756,3.60054,3.60054,0,0,1,1.845,1.82894,9.5287,9.5287,0,0,1,.67383,3.38515l-4.15523.43317a5.55169,5.55169,0,0,0-.52943-2.34233,1.52272,1.52272,0,0,0-1.4439-.83426,4.2508,4.2508,0,0,0-1.39577.20857,12.22565,12.22565,0,0,0-.32087,1.5562,14.52924,14.52924,0,0,0-.09625,1.8129,6.43881,6.43881,0,0,0,.56151,2.83967,1.76043,1.76043,0,0,0,1.62038,1.13908,5.1722,5.1722,0,0,0,1.2995-.17648,3.04265,3.04265,0,0,0,.70591-.44921,1.38294,1.38294,0,0,1,.28878-.22461,1.51339,1.51339,0,0,0-.28878-.97864,1.05091,1.05091,0,0,0-.88238-.353h-1.02678v-.86634h6.1446v1.57225c0,1.60433,0,3.01614.016,4.21939h-4.059l.08022-2.93593h-.25669a3.76247,3.76247,0,0,1-1.02678,2.39046,3.11867,3.11867,0,0,1-2.24606.78612A4.28032,4.28032,0,0,1,487.73716,395.61837Z" transform="translate(-103 -136)"/>
      </g>
    </g>
    <g id="Anvil">
      <path d="M466.36744,415.5121H483.4215c6.1446-4.01083,15.03261-8.15,27.54641-12.225v-5.35847H443.66613v3.28888l-59.617-.46526s1.17117,22.42858,49.42952,23.48744c0,0,17.15032,10.68486-13.26784,26.07042l-.1123,8.69549h15.61016s16.20377-10.79716,33.3541,0h15.61016v-8.92009s-23.696-13.01114-8.15-29.00635h-4.813a.80283.80283,0,0,1,0-1.60433h6.49755c.88238-.77008,1.845-1.55621,2.91989-2.34232H466.38349A.811.811,0,0,1,466.36744,415.5121Z" transform="translate(-103 -136)"/>
    </g>
  </g>
  <g>
    <path d="M170.73,711.20717a14.36673,14.36673,0,0,1-14.53077-22.21609l23.523-34.46871a14.36691,14.36691,0,1,1,23.73373,16.197l-23.523,34.46872A14.32718,14.32718,0,0,1,170.73,711.20717Z" transform="translate(-103 -136)" style="fill: #5e2a41"/>
    <path d="M164.58873,824.90861A14.36673,14.36673,0,0,1,150.058,802.69252l78.4165-114.88713a14.36539,14.36539,0,1,1,23.7295,16.19778L173.78745,818.8903A14.30866,14.30866,0,0,1,164.58873,824.90861Z" transform="translate(-103 -136)" style="fill: #5e2a41"/>
    <path d="M252.55359,800.73262a14.36673,14.36673,0,0,1-14.53077-22.21609l39.20146-57.44084a14.3664,14.3664,0,0,1,23.73232,16.19725l-39.20145,57.44084A14.32378,14.32378,0,0,1,252.55359,800.73262Z" transform="translate(-103 -136)" style="fill: #5e2a41"/>
    <path d="M423.46578,658.7968a14.32377,14.32377,0,0,1-10.76239-2.25073L214.16433,521.054a14.36691,14.36691,0,0,1,16.197-23.73374L428.90061,632.81371a14.36533,14.36533,0,0,1-5.43483,25.98309Z" transform="translate(-103 -136)" style="fill: #5e2a41"/>
    <path d="M464.1837,479.03044a88.60152,88.60152,0,1,1,56.73945-37.1227h0l-.00458.00671A87.97726,87.97726,0,0,1,464.1837,479.03044ZM436.6516,333.16183A59.85605,59.85605,0,1,0,497.18678,425.72l.00458-.00671a59.85605,59.85605,0,0,0-60.53976-92.55148Z" transform="translate(-103 -136)" style="fill: #5e2a41"/>
    <path d="M244.51388,634.19827a14.36942,14.36942,0,0,1-16.03639-19.3413l30.03936-77.01386a14.36613,14.36613,0,0,1,26.76842,10.44L255.24591,625.297A14.35656,14.35656,0,0,1,244.51388,634.19827Z" transform="translate(-103 -136)" style="fill: #5e2a41"/>
    <path d="M278.79631,657.59418a14.36745,14.36745,0,0,1-14.53218-22.21582l45.40833-66.53768a14.3664,14.3664,0,0,1,23.73348,16.19556L287.9976,651.57392A14.3134,14.3134,0,0,1,278.79631,657.59418Z" transform="translate(-103 -136)" style="fill: #5e2a41"/>
    <path d="M313.09214,680.97582a14.36644,14.36644,0,0,1-12.41741-24.67488l60.76585-56.04471a14.3659,14.3659,0,1,1,19.48018,21.11964L320.1549,677.42058A14.29891,14.29891,0,0,1,313.09214,680.97582Z" transform="translate(-103 -136)" style="fill: #5e2a41"/>
    <path d="M320.92558,356.91251a14.3668,14.3668,0,0,1-15.10284-21.29673l37.13222-64.3762A14.36581,14.36581,0,0,1,367.84272,285.596l-37.13222,64.3762A14.33171,14.33171,0,0,1,320.92558,356.91251Z" transform="translate(-103 -136)" style="fill: #5e2a41"/>
    <path d="M356.93111,695.54755a57.57327,57.57327,0,0,1-43.12758-8.98242l-11.04542-7.5379c-.15421-.09663-.30585-.1952-.45547-.29853l-80.03679-54.622a57.68081,57.68081,0,0,1-24.2906-56.97729l10.12063-60.31878a14.3766,14.3766,0,0,1,1.724-4.8005l95.99037-166.39061a14.36628,14.36628,0,1,1,24.888,14.35777l-94.69667,164.1436-9.69137,57.75973a28.8526,28.8526,0,0,0,12.15,28.49434l79.59713,54.32189c.15278.09689.30585.1952.45545.29853l11.49518,7.84483a28.77981,28.77981,0,0,0,30.94664.92787l50.2455-30.08129L575.96245,427.62754a14.36628,14.36628,0,1,1,22.44182,17.94225L432.02078,653.65141a14.351,14.351,0,0,1-3.839,3.35469l-52.46437,31.408A57.14117,57.14117,0,0,1,356.93111,695.54755Z" transform="translate(-103 -136)" style="fill: #5e2a41"/>
    <path d="M589.84616,450.7143a14.36676,14.36676,0,0,1-14.5308-22.21611,265.85849,265.85849,0,0,0,23.53947-257.91467A265.863,265.863,0,0,0,367.26332,286.51524a14.36691,14.36691,0,0,1-23.73374-16.197A294.627,294.627,0,0,1,609.36794,142.42852a14.36614,14.36614,0,0,1,11.8744,8.10364,294.63049,294.63049,0,0,1-22.19466,294.16328A14.32126,14.32126,0,0,1,589.84616,450.7143Z" transform="translate(-103 -136)" style="fill: #5e2a41"/>
    <path d="M635.53418,334.76922a14.32382,14.32382,0,0,1-10.76242-2.25075L438.617,205.4768a14.36691,14.36691,0,1,1,16.197-23.73373L640.96875,308.78475a14.36674,14.36674,0,0,1-5.43457,25.98447Z" transform="translate(-103 -136)" style="fill: #5e2a41"/>
    <path d="M224.94084,523.30206a14.5036,14.5036,0,0,1-3.579.22378l-98.13421-6.15561A14.36652,14.36652,0,0,1,110.578,498.25809a258.67243,258.67243,0,0,1,205.48188-169.6578,14.3656,14.3656,0,0,1,4.87,28.31141l-.0141.00266c-.17929.03384-.3591.06486-.53971.09163A229.95739,229.95739,0,0,0,144.8432,489.93691l78.01321,4.89349a14.36728,14.36728,0,0,1,2.08443,28.47166Z" transform="translate(-103 -136)" style="fill: #5e2a41"/>
    <path d="M464.98519,747.94716a14.3686,14.3686,0,0,1-15.68747-8.05062l-41.52083-89.1501a14.36632,14.36632,0,0,1,26.04621-12.13092l33.13731,71.15377a229.9375,229.9375,0,0,0,59.80079-211.9277,14.36643,14.36643,0,0,1,28.01048-6.40233,258.66829,258.66829,0,0,1-83.069,253.26927A14.34591,14.34591,0,0,1,464.98519,747.94716Z" transform="translate(-103 -136)" style="fill: #5e2a41"/>
  </g>
</svg>
