<svg id="Calque_1" data-name="Calque 1" xmlns="http://www.w3.org/2000/svg" viewBox="0 0 789.96657 693.95923">
  <path d="M728.5,718.5c-7.7,4.74-36.13,7.92-77.26,9.84-7.82.37-16.11.69-24.8.96-176.84,5.62-521.28-6.8-567.94-19.8-47.13-13.13,47.8-160.57,44.3-287.59-.04-1.54-.09-3.07-.17-4.6v-.01c-.24-5.14-.65-10.25-1.24-15.3C97.88,371.93,87.87,343.54,68,318.98-38.5,187.47,149.5,254.5,171.5,141.5S475.43,47.35,603.28,49c16.84.22,28.14-5.31,38-9.02a43.89463,43.89463,0,0,1,12.52-3.19c8.1-.57,16.46,2.72,27.7,14.71,30,32,43,126,118,95S767.5,694.5,728.5,718.5Z" transform="translate(-35.56557 -36.72867)" style="fill: azure"/>
  <g id="Marteau">
    <path d="M482.928,283.32013,381.87817,260.82631A1.78771,1.78771,0,0,1,380.5,258.70983v-.04922l3.69154-14.96305a1.81946,1.81946,0,0,1,2.11648-1.329l100.70532,22.543a9.40314,9.40314,0,0,1,7.137,11.22229c-.04921.14766-.09845.34455-.14765.49221h0A9.28879,9.28879,0,0,1,482.928,283.32013Z" transform="translate(-35.56557 -36.72867)" style="stroke: #fff;stroke-miterlimit: 10"/>
    <path d="M370.70509,262.84436l5.85725,1.4274a.239.239,0,0,0,.29532-.14766h0l5.31582-26.87444c.04923-.14767-.04922-.24611-.19688-.29533h0l-5.41426-.68909c-.09845,0-.24611.04923-.24611.19688l-5.75881,26.18536c-.04921.04923,0,.19688.14767.19688Z" transform="translate(-35.56557 -36.72867)" style="stroke: #fff;stroke-miterlimit: 10"/>
    <polyline points="332.777 224.147 321.456 242.162 300.439 237.24 297.141 204.262 314.762 176.255 335.779 181.177 337.699 200.226" style="stroke: #fff;stroke-miterlimit: 10"/>
    <line x1="364.67188" y1="193.384" x2="399.56929" y2="182.99846" style="fill: none"/>
    <path d="M399.20382,226.56879,434.495,217.5122a2.3679,2.3679,0,0,1,1.3782,4.5283L401.3203,233.65656a3.705,3.705,0,1,1-2.461-6.98933.91261.91261,0,0,1,.34455-.09844Z" transform="translate(-35.56557 -36.72867)"/>
    <line x1="353.40037" y1="170.93941" x2="407.29693" y2="115.91079" style="fill: none"/>
    <path d="M386.308,205.10862l55.07785-53.89655a2.05374,2.05374,0,1,1,2.95324,2.85479h0l-52.76448,56.20992a3.68985,3.68985,0,1,1-5.26661-5.16816Z" transform="translate(-35.56557 -36.72867)"/>
    <line x1="331.05422" y1="159.52024" x2="340.75068" y2="125.45959" style="fill: none"/>
    <path d="M363.0759,195.21528l11.27151-33.61767a2.12728,2.12728,0,0,1,2.65791-1.27973,2.05671,2.05671,0,0,1,1.329,2.41181l-8.17062,34.50363a3.70775,3.70775,0,0,1-7.23543-1.62428,3.38563,3.38563,0,0,0,.14767-.39376Z" transform="translate(-35.56557 -36.72867)"/>
    <line x1="306.54237" y1="157.74829" x2="286.26349" y2="85.29559" style="fill: none"/>
    <path d="M338.56405,195.5106l-18.80227-72.89569a2.107,2.107,0,0,1,1.57507-2.55947,2.16812,2.16812,0,0,1,2.55947,1.42739L345.701,193.49255a3.70854,3.70854,0,1,1-7.137,2.01805Z" transform="translate(-35.56557 -36.72867)"/>
    <line x1="287.7401" y1="174.28641" x2="261.21021" y2="147.9534" style="fill: none"/>
    <path d="M320.697,213.62377,295.496,185.9618a1.85886,1.85886,0,0,1,.14765-2.60869,1.81727,1.81727,0,0,1,2.461,0l27.80963,25.05328a3.69515,3.69515,0,1,1-4.92205,5.51271Z" transform="translate(-35.56557 -36.72867)"/>
    <line x1="274.49977" y1="195.35282" x2="198.99538" y2="174.68017" style="fill: none"/>
    <path d="M309.08092,235.6746l-74.91373-22.78914a1.48071,1.48071,0,1,1,.78752-2.85479l76.095,18.55616a3.679,3.679,0,1,1-1.96883,7.08777Z" transform="translate(-35.56557 -36.72867)"/>
    <line x1="274.49977" y1="218.33884" x2="242.30951" y2="227.3462" style="fill: none"/>
    <path d="M311.04975,258.61139l-12.945,2.75635-19.78669,4.18375a1.56512,1.56512,0,0,1-1.87037-1.23051,1.63227,1.63227,0,0,1,1.03363-1.82117l31.59963-11.07463a3.68892,3.68892,0,0,1,2.36258,6.98933.74624.74624,0,0,1-.39377.19688Z" transform="translate(-35.56557 -36.72867)"/>
  </g>
  <g id="AlgoForge">
    <path d="M283.32572,419.197c0-7.53074-.09844-16.09514-.29533-25.64393H299.224c-.14767,7.58-.2461,15.45526-.2461,23.62589,0,4.97128.04922,9.89334.14766,14.8154,5.21738,0,11.41917-.04923,18.55616-.14766l-1.13208,12.8958H283.03039Q283.32573,430.49313,283.32572,419.197Z" transform="translate(-35.56557 -36.72867)"/>
    <path d="M321.5209,438.93448q-4.87285-6.79245-4.87284-19.78669c0-9.155,1.82116-15.849,5.41427-20.13121q5.38965-6.34947,17.57174-6.34946c5.75881,0,10.23789.73831,13.48644,2.26415a13.83564,13.83564,0,0,1,7.03855,7.137c1.42739,3.24856,2.26415,7.62919,2.55948,13.19111l-15.849,1.6735c-.19688-3.88843-.83675-6.94011-2.01805-9.10581a5.897,5.897,0,0,0-5.5127-3.24856,16.67948,16.67948,0,0,0-5.365.78753,52.79608,52.79608,0,0,0-1.23051,6.05413,57.01863,57.01863,0,0,0-.39377,7.08776,25.39813,25.39813,0,0,0,2.11649,11.07463q2.14108,4.42986,6.2018,4.42985a18.92831,18.92831,0,0,0,4.97128-.68908,12.01648,12.01648,0,0,0,2.70713-1.72272,6.097,6.097,0,0,1,1.08285-.886,5.88644,5.88644,0,0,0-1.08285-3.79,4.01059,4.01059,0,0,0-3.347-1.37817h-3.93765v-3.347h23.429v6.10335c0,6.251,0,11.76371.04922,16.43967H349.08444l.29533-11.41918h-.98441c-.49221,4.18375-1.772,7.28464-3.88843,9.30269a11.86777,11.86777,0,0,1-8.51516,3.05168C329.54385,445.72693,324.72023,443.46278,321.5209,438.93448Z" transform="translate(-35.56557 -36.72867)"/>
    <path d="M376.84484,442.97057a16.84392,16.84392,0,0,1-7.58-8.6136c-1.62428-3.88843-2.41181-8.95816-2.41181-15.15994,0-9.20425,1.82117-15.94747,5.51271-20.13122,3.64232-4.18375,9.49957-6.30022,17.52254-6.30022,5.51271,0,10.041.93518,13.48643,2.80558a17.04773,17.04773,0,0,1,7.67842,8.712c1.62427,3.93764,2.461,8.95815,2.461,15.20915,0,9.10581-1.87038,15.75059-5.66037,19.98357s-9.598,6.34945-17.47331,6.34945C384.81858,445.72693,380.29028,444.79174,376.84484,442.97057Zm19.04837-9.598a54.814,54.814,0,0,0,1.6735-13.53567,25.98765,25.98765,0,0,0-1.96883-10.927c-1.329-2.85479-3.347-4.2822-6.10335-4.2822a18.57185,18.57185,0,0,0-5.46349.78753c-.443,1.96883-.83675,3.98687-1.08285,6.00492a59.34628,59.34628,0,0,0-.34455,7.23543,25.77488,25.77488,0,0,0,2.06727,11.02541c1.37818,2.904,3.44544,4.38063,6.15257,4.38063A15.78538,15.78538,0,0,0,395.89321,433.37256Z" transform="translate(-35.56557 -36.72867)"/>
    <path d="M613.25132,434.25852H619.65V420.91975c0-.59065-1.67351-.29532-2.26413-.04922a3.47575,3.47575,0,0,1-1.08286,2.95324c-.63986.83675-1.37817.59065-2.41182.59065H600.15862v-7.53076l17.91631.443V413.832H587.36127c0,3.54388-.04921,7.137-.09845,10.58242-.04921,3.79-.14765,7.08776-.2461,9.89334h23.872c.7383,0,2.36258.34455,2.85478-.29532a9.05787,9.05787,0,0,0,1.96883-3.39622,9.6849,9.6849,0,0,1,.29531,1.72272,13.81147,13.81147,0,0,1,0,2.01805" transform="translate(-35.56557 -36.72867)"/>
    <path d="M617.33662,406.74421a3.47575,3.47575,0,0,0-1.08286-2.95323c-.63986-.83676-1.37817-.59065-2.41182-.59065H600.10938v7.53074l17.91631-.443v3.49466H587.312c0-3.54389-.04921-7.08776-.09845-10.5332-.0492-3.79-.14765-7.08776-.2461-9.89334h32.63325V406.695C619.60079,407.28564,617.92727,407.03954,617.33662,406.74421Z" transform="translate(-35.56557 -36.72867)"/>
    <g style="isolation: isolate">
      <path d="M429.06788,414.22575c0-2.70713-.04922-7.08776-.19688-13.19111-.04922-3.69155-.09844-6.00492-.09844-7.03854H459.88v9.45036H441.47148l.04922,8.66283,16.93188-.443v8.26906l-16.93188-.443c0,4.18375.04922,9.10581.09845,14.8154H428.77257C428.96944,425.84181,429.06788,419.09859,429.06788,414.22575Z" transform="translate(-35.56557 -36.72867)"/>
    </g>
    <g style="isolation: isolate">
      <path d="M470.41318,432.92957a13.53807,13.53807,0,0,1-6.10335-6.79243,31.24345,31.24345,0,0,1-1.96883-11.9606c0-7.28464,1.47662-12.55125,4.42986-15.849s7.67841-4.97129,14.12631-4.97129a23.215,23.215,0,0,1,10.87774,2.21493,13.32689,13.32689,0,0,1,6.15257,6.84166,30.58576,30.58576,0,0,1,2.018,11.9606c0,7.137-1.52583,12.40359-4.57751,15.75058s-7.72764,5.02051-14.12632,5.02051C476.81185,435.1445,473.16953,434.40619,470.41318,432.92957ZM485.77,425.39881a42.05654,42.05654,0,0,0,1.329-10.68087,20.71945,20.71945,0,0,0-1.57506-8.6136,5.17255,5.17255,0,0,0-4.92206-3.39622,14.61457,14.61457,0,0,0-4.42985.63986,31.72069,31.72069,0,0,0-.83676,4.72518,46.59368,46.59368,0,0,0-.29533,5.70959,19.78417,19.78417,0,0,0,1.6735,8.712,5.25778,5.25778,0,0,0,4.97128,3.44544A13.00745,13.00745,0,0,0,485.77,425.39881Z" transform="translate(-35.56557 -36.72867)"/>
      <path d="M504.32616,414.22575c0-6.39868-.09845-13.1419-.2461-20.22966h19.639a38.54159,38.54159,0,0,1,9.49957.93518,10.133,10.133,0,0,1,5.56192,3.29779,10.27482,10.27482,0,0,1,1.91962,6.64478q0,6.05413-3.10089,8.56438c-2.06727,1.67349-5.41427,2.51025-9.99178,2.51025v.83676c4.47906.04922,7.6784.73831,9.598,2.018a7.72594,7.72594,0,0,1,3.24854,6.10335,35.55962,35.55962,0,0,0,.73831,4.72518,40.09563,40.09563,0,0,0,1.18131,4.72518H528.59193a87.40415,87.40415,0,0,1-1.13206-9.20425,12.73708,12.73708,0,0,0-.6891-2.85479,2.60877,2.60877,0,0,0-1.42741-1.37817,7.20746,7.20746,0,0,0-2.85479-.443h-5.61116v13.831H504.08006C504.22771,427.26921,504.32616,420.5752,504.32616,414.22575Zm21.70627-2.461a4.62545,4.62545,0,0,0,1.52582-3.88842c0-1.9196-.4922-3.24856-1.52582-3.98687a7.80245,7.80245,0,0,0-4.62675-1.13207h-4.72516v10.09022h4.82361A6.942,6.942,0,0,0,526.03243,411.76472Z" transform="translate(-35.56557 -36.72867)"/>
      <path d="M548.28014,429.77946c-2.60869-3.5931-3.93765-8.76126-3.93765-15.60293,0-7.23544,1.47662-12.502,4.38065-15.849s7.62919-5.02051,14.12631-5.02051c4.62675,0,8.26906.59066,10.87774,1.772a11.04647,11.04647,0,0,1,5.66037,5.61114c1.1813,2.55948,1.82117,6.00492,2.06727,10.38555l-12.74815,1.329a17.03241,17.03241,0,0,0-1.62427-7.18621,4.67165,4.67165,0,0,0-4.42985-2.55947,13.04159,13.04159,0,0,0-4.2822.63986,37.50855,37.50855,0,0,0-.98441,4.7744,44.57525,44.57525,0,0,0-.29531,5.56192,19.75378,19.75378,0,0,0,1.72272,8.712c1.13207,2.31338,2.80558,3.49467,4.97127,3.49467a15.86754,15.86754,0,0,0,3.98685-.54143,9.33435,9.33435,0,0,0,2.16572-1.37817,4.24312,4.24312,0,0,1,.886-.68909,4.6431,4.6431,0,0,0-.886-3.00246,3.22417,3.22417,0,0,0-2.70713-1.08286h-3.15013v-2.6579h18.85148v4.82361c0,4.92206,0,9.25346.04921,12.945H570.52782l.24611-9.00737h-.78752c-.39376,3.29779-1.42741,5.7096-3.15013,7.33387a9.56813,9.56813,0,0,1-6.89088,2.4118C554.77726,435.1445,550.88883,433.32333,548.28014,429.77946Z" transform="translate(-35.56557 -36.72867)"/>
    </g>
  </g>
  <g id="Anvil">
    <path d="M482.71831,490.813h52.32148c18.85148-12.30515,46.1197-25.00405,84.51176-37.5061V436.86722H413.07119v10.09022l-182.90371-1.42739s3.5931,68.81037,151.64864,72.05892c0,0,52.6168,32.7809-40.70543,79.98346L340.76615,624.25h47.89163s49.71279-33.12545,102.32961,0H538.879V596.88336S466.1802,556.96547,513.875,507.89254H499.10879c-3.15013,0-3.15013-4.92206,0-4.92206h19.93434c2.70713-2.36258,5.66037-4.7744,8.95815-7.18619H482.76755C479.56821,495.73505,479.56821,490.813,482.71831,490.813Z" transform="translate(-35.56557 -36.72867)"/>
  </g>
  <polygon points="462.387 120.959 537.87 123.173 555.947 145.098 543.733 219.619 468.44 255.368 459.402 244.406 527.434 205.435 527.725 149.953 473.204 139.662 433.434 218.271 424.434 213.271 462.387 120.959" style="fill: #b3b3b3"/>
  <rect x="569.79474" y="163.43842" width="32.36213" height="9.07718" rx="4.53859" transform="translate(793.57831 690.22348) rotate(-129.50582)" style="fill: gray"/>
  <rect x="608.2064" y="102.77723" width="21.31164" height="76.16939" transform="translate(868.30657 671.23279) rotate(-129.50582)" style="fill: #b3b3b3"/>
  <rect x="486.19038" y="284.8118" width="19.33834" height="9.07718" rx="4.53859" transform="translate(552.48718 819.27925) rotate(-129.50582)" style="fill: gray"/>
  <path d="M457.46042,252.07682h10.26117a4.53859,4.53859,0,0,1,4.53859,4.53859v0a4.53859,4.53859,0,0,1-4.53859,4.53859H457.46042a4.53858,4.53858,0,0,1-4.53858-4.53858v0a4.53859,4.53859,0,0,1,4.53859-4.53859Z" transform="translate(730.89494 652.90549) rotate(-154.0778)" style="fill: gray"/>
  <rect x="635.53576" y="108.76737" width="32.36213" height="9.07718" rx="4.53859" transform="translate(943.32292 651.4962) rotate(-129.50582)" style="fill: gray"/>
  <path d="M662.11,118.76l-13.56-16.45-7.27-62.33a43.89463,43.89463,0,0,1,12.52-3.19Z" transform="translate(-35.56557 -36.72867)" style="fill: #b3b3b3"/>
  <polygon points="531.347 557.136 538.274 618.485 522.617 635.648 460.891 634.37 413.316 583.108 421.144 574.527 470.488 619.54 515.428 613.367 517.459 568.051 468.115 523.037 475.943 514.456 531.347 557.136" style="fill: #b3b3b3"/>
  <rect x="555.52302" y="662.58563" width="26.45841" height="7.42126" rx="3.71063" transform="translate(-342.36835 600.70187) rotate(-47.62757)" style="fill: gray"/>
  <rect x="585.78506" y="658.6447" width="17.42383" height="62.27407" transform="translate(-351.32479 627.37908) rotate(-47.62757)" style="fill: #b3b3b3"/>
  <rect x="442.25747" y="609.21552" width="15.81051" height="7.42126" rx="3.71063" transform="translate(-341.60606 495.68886) rotate(-47.62757)" style="fill: gray"/>
  <rect x="497.05691" y="549.14444" width="15.81051" height="7.42126" rx="3.71063" transform="translate(-279.35923 516.58722) rotate(-47.62757)" style="fill: gray"/>
  <rect x="607.14867" y="709.06484" width="26.45841" height="7.42126" rx="3.71063" transform="translate(-359.87355 653.99655) rotate(-47.62757)" style="fill: gray"/>
  <path d="M651.24,728.34c-7.82.37-16.11.69-24.8.96l-8.72-7.95,11.75-12.87Z" transform="translate(-35.56557 -36.72867)" style="fill: #b3b3b3"/>
  <path d="M237.7848,384.64827c-2.33444-1.90285-3.89074-3.17142-4.73817-3.81237-.42039-.35513-.87208-.74821-1.39307-1.148s-1.10459-.87547-1.75749-1.35785l-10.06381,8.29768,4.62274,9.011-12.53229,10.333-6.67463-13.12446q-12.808-25.515-17.18654-33.611l21.03905-17.34685q11.34342,9.1155,41.44436,32.238ZM223.24384,372.97q-14.26146-11.49406-20.9213-18.41085l-.64561.5323c4.03322,6.05225,8.75592,14.02394,14.12349,24.0157Z" transform="translate(-35.56557 -36.72867)"/>
  <polygon points="125.878 405.51 75.515 385.026 68.836 365.689 95.823 318.491 155.505 303.289 158.845 312.958 103.249 332.159 89.096 369.514 123.286 390.172 178.881 370.97 182.22 380.639 125.878 405.51" style="fill: #b3b3b3"/>
  <path d="M108.46,424.16a3.38419,3.38419,0,0,1-1.07.18,3.2707,3.2707,0,0,1-3.09-2.2l-1.67-4.83v-.01c-.24-5.14-.65-10.25-1.24-15.3a3.03337,3.03337,0,0,1,.52-.04,3.26125,3.26125,0,0,1,3.09,2.2l5.48,15.85A3.25954,3.25954,0,0,1,108.46,424.16Z" transform="translate(-35.56557 -36.72867)" style="fill: gray"/>
  <path d="M104.07,421.47l-1.27.44c-.04-1.54-.09-3.07-.17-4.6Z" transform="translate(-35.56557 -36.72867)" style="fill: #b3b3b3"/>
  <rect x="188.91418" y="340.6519" width="13.92306" height="6.53531" rx="3.26765" transform="translate(421.44248 9.77223) rotate(70.94621)" style="fill: gray"/>
  <rect x="212.28981" y="408.33319" width="13.92306" height="6.53531" rx="3.26765" transform="matrix(0.32646, 0.94521, -0.94521, 0.32646, 501.1602, 33.26363)" style="fill: gray"/>
</svg>
